<svg xmlns="http://www.w3.org/2000/svg" xmlns:xlink="http://www.w3.org/1999/xlink" version="1.1" x="0px" y="0px" viewBox="0 0 100 125" enable-background="new 0 0 100 100" xml:space="preserve"><path fill="#C8C508" d="M93.273,50.839c0,23.575-19.111,42.689-42.689,42.689S7.895,74.414,7.895,50.839c0-23.583,19.111-42.698,42.689-42.698  S93.273,27.256,93.273,50.839L93.273,50.839z M36.646,33.437c0-2.641-2.139-4.775-4.776-4.775c-2.641,0-4.779,2.134-4.779,4.775  c0,2.637,2.138,4.776,4.779,4.776C34.506,38.212,36.646,36.073,36.646,33.437L36.646,33.437z M45.362,51.223L47.8,79.834l6.72-0.568  L52.049,50.27c-0.156-1.827-1.098-3.501-2.574-4.586l-5.165-3.784c-0.088-0.063-0.16-0.131-0.223-0.215  c-0.41-0.502-0.329-1.245,0.178-1.654l10.969-8.822c1.445-1.165,1.678-3.291,0.51-4.738l-2.113-2.628l-2.625,2.114L35.494,38.436  c-0.844,0.683-1.501,1.565-1.907,2.569l-3.607,8.923c-1.321,3.253,0.253,6.957,3.506,8.269c2.881,1.169,6.184,0.076,7.805-2.581  l2.932-4.814c0.169-0.232,0.447-0.278,0.645-0.131l0.312,0.229C45.281,50.975,45.349,51.092,45.362,51.223z M70.628,24.94  l-17.571,17.9c-1.303,1.325-1.282,3.459,0.047,4.763c1.328,1.308,3.459,1.287,4.763-0.042l17.571-17.9L70.628,24.94z M40.197,47.245  l-0.506-0.371c-0.4-0.292-0.961-0.203-1.252,0.194c-0.042,0.059-0.08,0.123-0.11,0.194l-1.615,3.995  c-0.093,0.232,0.017,0.494,0.244,0.588c0.207,0.08,0.439,0,0.553-0.182L40.197,47.245z"/></svg>