<svg xmlns="http://www.w3.org/2000/svg" xmlns:xlink="http://www.w3.org/1999/xlink" version="1.1" x="0px" y="0px" viewBox="0 0 100 125" enable-background="new 0 0 100 100" xml:space="preserve"><g><path d="M83.141,51.555c-0.467-0.871-1.224-1.501-2.132-1.775l-4.682-1.411c0.059-0.72,0.092-1.384,0.092-1.964   c0-3.417-0.42-6.521-1.194-9.326c-0.028-0.175-0.083-0.343-0.154-0.507c-2.562-8.623-8.778-14.149-18.03-15.956   c-0.151-0.049-0.308-0.083-0.469-0.096c-2.066-0.372-4.263-0.58-6.617-0.58s-4.55,0.208-6.616,0.579   c-0.188,0.013-0.369,0.051-0.545,0.111c-9.147,1.81-15.315,7.267-17.903,15.768c-0.144,0.26-0.229,0.544-0.254,0.838   c-0.746,2.762-1.146,5.816-1.146,9.169c0,0.588,0.033,1.261,0.093,1.991l-4.592,1.384c-0.907,0.274-1.663,0.904-2.131,1.775   c-0.529,0.988-0.634,2.208-0.291,3.343l5.289,17.538c0.342,1.143,1.105,2.101,2.095,2.632c0.553,0.298,1.15,0.447,1.744,0.447   c0.34,0,0.68-0.049,1.01-0.148l5.398-1.628c2.502,3.347,5.648,6.322,8.845,6.322c1.378,0,3.341-0.543,4.855-3.136   c1.617-2.765-0.376-5.799-2.646-8.47c4.058-2.875,9.532-2.875,13.59,0c-2.27,2.671-4.263,5.705-2.646,8.47   c1.516,2.593,3.477,3.136,4.856,3.136c0,0,0,0,0.001,0c3.203,0,6.355-2.989,8.86-6.346l5.471,1.65   c0.332,0.101,0.673,0.149,1.013,0.149c0.596,0,1.191-0.149,1.744-0.447c0.989-0.531,1.753-1.489,2.095-2.629l5.288-17.537   C83.774,53.763,83.67,52.543,83.141,51.555z M68.901,32.843c-2.148-0.864-4.771-1.646-7.601-1.866l-1.718-5.354   C63.25,26.885,66.583,29.121,68.901,32.843z M40.286,25.637l-1.713,5.34c-2.811,0.219-5.416,0.99-7.555,1.848   C33.328,29.126,36.642,26.898,40.286,25.637z M25.903,71.186l-5.27-17.478l3.481-1.05c0.755,4.771,2.051,10.182,3.065,12.621   c0.402,0.969,1.275,2.764,2.473,4.774L25.903,71.186z M40.359,65.263c-0.203-0.247-0.381-0.474-0.485-0.644   c-1.749-2.838-2.911-13.173-2.911-15.199c0-1.088,0-2.027,4.626-2.027c1.094,0,2.292,0.048,3.567,0.099   c3.057,0.124,6.538,0.124,9.596,0c1.275-0.051,2.473-0.099,3.567-0.099c4.626,0,4.626,0.939,4.626,2.027   c0,2.026-1.162,12.361-2.911,15.199c-0.105,0.17-0.283,0.396-0.485,0.644C53.882,61.005,46.025,61.005,40.359,65.263z    M58.96,75.826c-0.147,0-0.596,0-1.189-1.007c-0.19-0.987,2.575-4.063,3.615-5.222c0.944-1.052,1.761-1.959,2.251-2.757   c2.521-4.088,3.543-15.756,3.543-17.421c0-6.262-6.438-6.262-8.86-6.262c-1.146,0-2.401,0.05-3.736,0.104   c-2.975,0.118-6.283,0.118-9.258,0c-1.336-0.054-2.59-0.104-3.736-0.104c-2.424,0-8.86,0-8.86,6.262   c0,1.665,1.021,13.333,3.542,17.421c0.491,0.798,1.307,1.705,2.251,2.757c1.041,1.158,3.806,4.234,3.628,5.191   c-0.606,1.037-1.055,1.037-1.2,1.037c-2.47,0-7.648-6.856-9.859-12.173c-1.329-3.195-3.366-13.005-3.366-17.249   c0-2.897,0.302-5.433,0.848-7.65c1.661-1.013,6.414-3.605,11.566-3.605c0.92,0,1.735-0.594,2.016-1.471l2.944-9.179   c1.631-0.23,3.267-0.325,4.856-0.325c1.576,0,3.2,0.094,4.82,0.32l2.945,9.184c0.281,0.877,1.096,1.471,2.017,1.471   c5.167,0,9.98,2.641,11.607,3.634c0.541,2.21,0.841,4.737,0.841,7.622c0,4.244-2.037,14.054-3.366,17.249   C66.607,68.97,61.429,75.828,58.96,75.826z M74.098,71.186l-3.829-1.155c1.19-2.001,2.058-3.786,2.459-4.751   c1.016-2.443,2.315-7.869,3.069-12.647l3.57,1.076L74.098,71.186z"/></g></svg>