<svg xmlns="http://www.w3.org/2000/svg" viewBox="0 0 100 125" x="0px" y="0px"><path d="m 65.797872,74.414892 c 0,4.759051 3.857971,8.617022 8.617022,8.617022 4.759051,0 8.617022,-3.857971 8.617022,-8.617022 0,-4.759051 -3.857971,-8.617022 -8.617022,-8.617022 -4.759051,0 -8.617022,3.857971 -8.617022,8.617022 z" color="#000"/><path d="m 65.797872,25.585103 c 0,4.759051 3.857971,8.617022 8.617022,8.617022 4.759051,0 8.617022,-3.857971 8.617022,-8.617022 0,-4.759051 -3.857971,-8.617021 -8.617022,-8.617021 -4.759051,0 -8.617022,3.85797 -8.617022,8.617021 z" color="#000"/><path d="m 16.968084,25.585103 c 0,4.759051 3.85797,8.617022 8.617021,8.617022 4.759051,0 8.617022,-3.857971 8.617022,-8.617022 0,-4.759051 -3.857971,-8.617021 -8.617022,-8.617021 -4.759051,0 -8.617021,3.85797 -8.617021,8.617021 z" color="#000"/><path d="m 16.968084,74.414892 c 0,4.759051 3.85797,8.617022 8.617021,8.617022 4.759051,0 8.617022,-3.857971 8.617022,-8.617022 0,-4.759051 -3.857971,-8.617022 -8.617022,-8.617022 -4.759051,0 -8.617021,3.857971 -8.617021,8.617022 z" color="#000"/><path d="M 19.9375,5 C 11.705017,5 5,11.705022 5,19.9375 l 0,60.125 C 5,88.294978 11.705017,95 19.9375,95 l 60.125,0 C 88.294974,95 95,88.294976 95,80.0625 l 0,-60.125 C 95,11.705024 88.294974,5 80.0625,5 l -60.125,0 z m 0,2.71875 60.125,0 c 6.764896,0 12.21875,5.45385 12.21875,12.21875 l 0,60.125 c 0,6.7649 -5.453854,12.21875 -12.21875,12.21875 l -60.125,0 c -6.764907,0 -12.21875,-5.453848 -12.21875,-12.21875 l 0,-60.125 c 0,-6.764902 5.453843,-12.21875 12.21875,-12.21875 z" color="#000"/></svg>