<svg xmlns:dc="http://purl.org/dc/elements/1.1/" xmlns:cc="http://creativecommons.org/ns#" xmlns:rdf="http://www.w3.org/1999/02/22-rdf-syntax-ns#" xmlns:svg="http://www.w3.org/2000/svg" xmlns="http://www.w3.org/2000/svg" xmlns:sodipodi="http://sodipodi.sourceforge.net/DTD/sodipodi-0.dtd" xmlns:inkscape="http://www.inkscape.org/namespaces/inkscape" viewBox="0 0 47.999997 60" version="1.1" x="0px" y="0px"><path style="color:#000000;font-style:normal;font-variant:normal;font-weight:normal;font-stretch:normal;font-size:medium;line-height:normal;font-family:sans-serif;text-indent:0;text-align:start;text-decoration:none;text-decoration-line:none;text-decoration-style:solid;text-decoration-color:#000000;letter-spacing:normal;word-spacing:normal;text-transform:none;direction:ltr;block-progression:tb;writing-mode:lr-tb;baseline-shift:baseline;text-anchor:start;white-space:normal;clip-rule:nonzero;display:inline;overflow:visible;visibility:visible;opacity:1;isolation:auto;mix-blend-mode:normal;color-interpolation:sRGB;color-interpolation-filters:linearRGB;solid-color:#000000;solid-opacity:1;fill:#000000;fill-opacity:1;fill-rule:evenodd;stroke:none;stroke-width:2;stroke-linecap:butt;stroke-linejoin:miter;stroke-miterlimit:4;stroke-dasharray:none;stroke-dashoffset:0;stroke-opacity:1;marker:none;color-rendering:auto;image-rendering:auto;shape-rendering:auto;text-rendering:auto;enable-background:accumulate" d="M 17 2 C 16.44772 2 16 2.44772 16 3 L 16 9 C 16 9.55228 16.44772 10 17 10 C 17.55228 10 18 9.55228 18 9 L 18 3 C 18 2.44772 17.55228 2 17 2 z M 7.0136719 3.0136719 C 6.7577519 3.0136719 6.5019006 3.1113706 6.3066406 3.3066406 C 5.9161206 3.6971606 5.9161206 4.3301831 6.3066406 4.7207031 L 10.306641 8.7207031 C 10.697161 9.1112229 11.330183 9.1112229 11.720703 8.7207031 C 12.111223 8.3301831 12.111223 7.6971606 11.720703 7.3066406 L 7.7207031 3.3066406 C 7.5254431 3.1113806 7.2695919 3.0136719 7.0136719 3.0136719 z M 38.640625 4 C 37.991185 3.994 37.329189 4.1155362 36.693359 4.3789062 L 26.085938 8.7734375 C 23.542627 9.8269071 22.324906 12.764044 23.378906 15.308594 L 27.771484 25.912109 C 28.825474 28.456659 31.763321 29.674554 34.306641 28.621094 L 44.914062 24.226562 C 47.457372 23.173092 48.675094 20.235956 47.621094 17.691406 L 43.228516 7.0878906 C 42.438016 5.1794806 40.588985 4.0172 38.640625 4 z M 38.636719 5.9921875 C 39.806839 5.9951875 40.898609 6.6892756 41.380859 7.8535156 L 45.771484 18.457031 C 46.414484 20.009341 45.699978 21.734283 44.148438 22.376953 L 33.541016 26.771484 C 31.989466 27.414154 30.262131 26.698784 29.619141 25.146484 L 25.228516 14.542969 C 24.585526 12.990659 25.300013 11.265717 26.851562 10.623047 L 37.458984 6.2285156 C 37.846874 6.0678856 38.246679 5.9912375 38.636719 5.9921875 z M 6 13 C 5.44772 13 5 13.44772 5 14 C 5 14.55228 5.44772 15 6 15 L 12 15 C 12.55228 15 13 14.55228 13 14 C 13 13.44772 12.55228 13 12 13 L 6 13 z M 30.5 13 A 1.5 1.5 0 0 0 29 14.5 A 1.5 1.5 0 0 0 30.5 16 A 1.5 1.5 0 0 0 32 14.5 A 1.5 1.5 0 0 0 30.5 13 z M 35.5 15 A 1.5 1.5 0 0 0 34 16.5 A 1.5 1.5 0 0 0 35.5 18 A 1.5 1.5 0 0 0 37 16.5 A 1.5 1.5 0 0 0 35.5 15 z M 40.5 17 A 1.5 1.5 0 0 0 39 18.5 A 1.5 1.5 0 0 0 40.5 20 A 1.5 1.5 0 0 0 42 18.5 A 1.5 1.5 0 0 0 40.5 17 z M 9.359375 19 C 7.4110251 19.0172 5.5619844 20.179481 4.7714844 22.087891 L 0.37890625 32.691406 C -0.6750837 35.235956 0.542627 38.173092 3.0859375 39.226562 L 13.693359 43.621094 C 16.236669 44.674554 19.174526 43.456659 20.228516 40.912109 L 24.621094 30.308594 C 25.675094 27.764044 24.457372 24.826906 21.914062 23.773438 L 11.306641 19.378906 C 10.670811 19.115536 10.008825 18.99426 9.359375 19 z M 9.3632812 20.992188 C 9.7533214 20.991238 10.153126 21.067886 10.541016 21.228516 L 21.148438 25.623047 C 22.699997 26.265717 23.414474 27.990659 22.771484 29.542969 L 18.380859 40.146484 C 17.737869 41.698794 16.010534 42.414154 14.458984 41.771484 L 3.8515625 37.376953 C 2.3000025 36.734283 1.5855256 35.009341 2.2285156 33.457031 L 6.6191406 22.853516 C 7.1013906 21.689276 8.1931614 20.995027 9.3632812 20.992188 z M 10.5 25 A 1.5 1.5 0 0 0 9 26.5 A 1.5 1.5 0 0 0 10.5 28 A 1.5 1.5 0 0 0 12 26.5 A 1.5 1.5 0 0 0 10.5 25 z M 17.5 28 A 1.5 1.5 0 0 0 16 29.5 A 1.5 1.5 0 0 0 17.5 31 A 1.5 1.5 0 0 0 19 29.5 A 1.5 1.5 0 0 0 17.5 28 z M 12.5 30 A 1.5 1.5 0 0 0 11 31.5 A 1.5 1.5 0 0 0 12.5 33 A 1.5 1.5 0 0 0 14 31.5 A 1.5 1.5 0 0 0 12.5 30 z M 7.5 32 A 1.5 1.5 0 0 0 6 33.5 A 1.5 1.5 0 0 0 7.5 35 A 1.5 1.5 0 0 0 9 33.5 A 1.5 1.5 0 0 0 7.5 32 z M 35 33 C 34.45435 33.008 34 33.45252 34 34 C 34 34.55228 34.44772 35 35 35 L 41 35 C 41.55228 35 42 34.55228 42 34 C 42 33.44772 41.55228 33 41 33 L 35 33 z M 14.5 35 A 1.5 1.5 0 0 0 13 36.5 A 1.5 1.5 0 0 0 14.5 38 A 1.5 1.5 0 0 0 16 36.5 A 1.5 1.5 0 0 0 14.5 35 z M 30 38 C 29.45252 38 29.0077 38.45435 29 39 L 29 45 C 29 45.55228 29.44772 46 30 46 C 30.55228 46 31 45.55228 31 45 L 31 39 C 31 38.44772 30.55228 38 30 38 z M 36.013672 39.013672 C 35.757752 39.013672 35.501901 39.111371 35.306641 39.306641 C 34.920921 39.692371 34.918552 40.313538 35.294922 40.705078 L 35.292969 40.707031 L 35.306641 40.720703 L 39.292969 44.707031 C 39.683489 45.097551 40.330183 45.111043 40.720703 44.720703 C 41.111223 44.330183 41.097731 43.683489 40.707031 43.292969 L 36.720703 39.306641 L 36.707031 39.292969 L 36.705078 39.294922 C 36.511748 39.109162 36.263292 39.013672 36.013672 39.013672 z " transform="translate(-1.9073486e-6,0)"/></svg>